<svg width="506" height="94" viewBox="0 0 506 94" fill="none" xmlns="http://www.w3.org/2000/svg">
<path d="M22.749 0H0V22.7489V45.4978V68.2467H22.749V45.4978V22.7489H45.4979V0H22.749Z" fill="white"/>
<path d="M68.2489 22.7461V45.495V68.2439H45.5V90.9949H68.2489H90.9999V68.2439V45.495V22.7461H68.2489Z" fill="white"/>
<path d="M68.2456 45.495C68.2456 45.495 45.4969 45.1644 45.4969 22.7461C45.4969 45.1665 22.748 45.495 22.748 45.495C22.748 45.495 45.4969 45.8256 45.4969 68.2439C45.4969 45.8256 68.2456 45.495 68.2456 45.495Z" fill="white"/>
<path d="M133.981 60.2476V81.5597C133.981 87.1983 136.466 88.4407 145.641 89.1097V92.168H114.676V89.3009C121.557 88.4407 122.704 87.8673 122.704 82.5154V34.7304C122.704 29.3785 121.557 28.8051 114.676 27.9449V25.0778H164.086L164.468 41.9937H162.27C158.351 31.5766 154.815 28.5184 147.743 28.5184H133.981V56.6159H146.023C150.228 56.6159 151.566 53.5577 152.522 47.6324H155.389V69.2312H152.522C151.566 63.3058 150.228 60.2476 146.023 60.2476H133.981ZM183.979 86.6249C187.324 86.6249 189.809 85.0958 193.154 82.4198V64.4527L183.119 68.5622C178.627 70.2824 176.047 72.7673 176.047 77.928C176.047 83.0888 178.627 86.6249 183.979 86.6249ZM203.858 56.2337V81.5597C203.858 85.3825 204.622 87.3895 207.298 87.3895C208.827 87.3895 210.165 86.9116 211.408 86.3382L211.981 88.0585C209.496 91.4034 206.056 93.1237 202.042 93.1237C197.072 93.1237 194.11 89.8743 193.345 84.6179C190.096 88.5363 184.935 93.0281 178.245 93.0281C170.599 93.0281 165.725 88.2496 165.725 80.8907C165.725 72.7673 171.651 69.4223 179.105 66.6508L193.154 61.49V54.2267C193.154 48.2058 190.956 43.8096 185.222 43.8096C180.156 43.8096 178.054 47.3456 178.054 52.1241C178.054 53.8444 178.341 55.4691 178.818 57.4761L172.511 58.3362C170.026 57.5716 168.497 55.6602 168.497 52.7931C168.497 45.2431 176.334 41.1336 186.368 41.1336C197.837 41.1336 203.858 45.721 203.858 56.2337ZM230.508 41.1336V84.9046C230.508 88.4407 232.037 89.1097 236.816 89.3964V92.168H213.497V89.3964C218.275 89.1097 219.804 88.4407 219.804 84.9046V50.7862L213.784 47.4412V46.1032L228.979 41.1336H230.508ZM224.87 34.3481C220.951 34.3481 218.084 31.2899 218.084 27.6582C218.084 23.931 220.951 20.8728 224.87 20.8728C228.788 20.8728 231.751 23.931 231.751 27.6582C231.751 31.2899 228.788 34.3481 224.87 34.3481ZM257.294 57.3805V84.5224C257.294 88.3452 259.492 89.0142 265.609 89.3964V92.168H240.283V89.3964C245.061 89.1097 246.59 88.4407 246.59 84.9046V50.7862L240.569 47.4412V46.1032L256.052 41.1336H257.676L257.294 54.8957C262.264 44.8608 264.748 41.1336 270.292 41.1336C272.107 41.1336 273.445 41.8026 274.21 42.6627V51.264H272.585C266.755 51.264 262.455 51.6463 257.294 57.3805ZM281.069 26.7025L275.048 23.4531V22.0196L290.148 17.3367H291.772V49.8305C295.213 44.8608 300.374 41.1336 307.828 41.1336C319.679 41.1336 326.751 49.926 326.751 64.166C326.751 82.3243 315.569 93.1237 301.712 93.1237C293.493 93.1237 286.038 90.6388 281.069 86.3382V26.7025ZM301.712 90.0654C310.504 90.0654 315.952 80.5084 315.952 68.371C315.952 57.1894 311.842 47.7279 301.807 47.7279C297.984 47.7279 294.162 49.5438 291.772 52.1241V78.5015C291.772 86.5293 295.308 90.0654 301.712 90.0654ZM347.82 17.3367V84.9046C347.82 88.4407 349.349 89.1097 354.127 89.3964V92.168H330.808V89.3964C335.587 89.1097 337.116 88.4407 337.116 84.9046V26.7025L331.095 23.4531V22.0196L346.195 17.3367H347.82ZM381.491 89.9699C389.328 89.9699 393.437 81.4641 393.437 68.7533C393.437 55.3735 389.614 44.2874 381.013 44.2874C373.176 44.2874 369.162 52.7931 369.162 65.5039C369.162 78.7882 372.985 89.9699 381.491 89.9699ZM381.013 93.1237C367.06 93.1237 357.79 83.1844 357.79 68.2755C357.79 51.933 368.111 41.1336 381.491 41.1336C395.444 41.1336 404.714 51.1684 404.714 65.8862C404.714 82.3243 394.393 93.1237 381.013 93.1237ZM419.516 64.0704C419.516 76.6856 425.441 85.1914 435.189 85.1914C441.401 85.1914 445.702 82.4198 448.856 77.6413L450.289 78.3103C447.327 87.9629 440.732 93.1237 431.558 93.1237C418.942 93.1237 410.054 83.4711 410.054 68.8489C410.054 52.9843 419.325 41.1336 433.947 41.1336C443.026 41.1336 448.951 44.9564 448.951 51.6463C448.951 54.4178 447.518 56.7115 445.606 57.7628H439.299C439.49 56.5204 439.681 55.1824 439.681 53.4621C439.681 48.6836 438.056 44.383 432.227 44.383C424.294 44.383 419.516 52.9843 419.516 64.0704ZM471.227 64.9305L486.422 51.0729C487.951 49.7349 489.003 48.5881 489.003 47.3456C489.003 45.5298 487.187 45.3387 482.695 44.8608V42.0893H502.287V44.8608C498.655 45.6254 496.839 46.3899 494.641 48.3969L480.879 61.0122L504.485 90.161V92.168H492.825L471.227 64.9305ZM459.472 84.9046V26.7025L453.451 23.4531V22.0196L468.551 17.3367H470.175V84.9046C470.175 88.4407 471.705 89.1097 476.483 89.3964V92.168H453.164V89.3964C457.942 89.1097 459.472 88.4407 459.472 84.9046Z" fill="white"/>
</svg>
